<svg width="18" height="18" viewBox="0 0 18 18" fill="none" xmlns="http://www.w3.org/2000/svg">
<path d="M11.2889 9.39844L12.3936 15.6153C12.406 15.6885 12.3957 15.7638 12.3642 15.831C12.3326 15.8982 12.2813 15.9542 12.2171 15.9914C12.1529 16.0287 12.0788 16.0454 12.0048 16.0395C11.9308 16.0335 11.8604 16.0051 11.803 15.958L9.19256 13.9987C9.06654 13.9046 8.91346 13.8537 8.75616 13.8537C8.59885 13.8537 8.44577 13.9046 8.31975 13.9987L5.70496 15.9573C5.64759 16.0043 5.57725 16.0326 5.50334 16.0386C5.42943 16.0446 5.35545 16.0279 5.29127 15.9907C5.2271 15.9536 5.17578 15.8977 5.14417 15.8307C5.11255 15.7636 5.10215 15.6885 5.11433 15.6153L6.21829 9.39844" stroke="#CC1015" stroke-width="1.45833" stroke-linecap="round" stroke-linejoin="round"/>
<path d="M8.75 10.207C11.1662 10.207 13.125 8.24828 13.125 5.83203C13.125 3.41579 11.1662 1.45703 8.75 1.45703C6.33375 1.45703 4.375 3.41579 4.375 5.83203C4.375 8.24828 6.33375 10.207 8.75 10.207Z" stroke="#CC1015" stroke-width="1.45833" stroke-linecap="round" stroke-linejoin="round"/>
</svg>
