<svg width="14" height="14" viewBox="0 0 14 14" fill="none" xmlns="http://www.w3.org/2000/svg">
<path d="M9.91789 12.2485C10.0726 12.2485 10.221 12.187 10.3304 12.0776C10.4398 11.9682 10.5012 11.8198 10.5012 11.6651V8.54429C10.5012 8.27771 10.6856 8.05196 10.9253 7.93704C11.4217 7.70024 11.8185 7.2957 12.0457 6.79481C12.2728 6.29392 12.3158 5.72889 12.1669 5.19944C12.018 4.66998 11.6869 4.21013 11.232 3.90105C10.777 3.59196 10.2275 3.45351 9.68047 3.51013C9.45517 2.98641 9.08132 2.54022 8.60514 2.2267C8.12896 1.91318 7.57134 1.74609 7.00122 1.74609C6.4311 1.74609 5.87348 1.91318 5.39731 2.2267C4.92113 2.54022 4.54728 2.98641 4.32197 3.51013C3.77515 3.45391 3.22603 3.59255 2.77143 3.90162C2.31684 4.21069 1.98596 4.67034 1.83714 5.19952C1.68832 5.7287 1.7311 6.29343 1.95796 6.79415C2.18481 7.29486 2.58117 7.69941 3.07714 7.93646C3.31689 8.05196 3.50122 8.27771 3.50122 8.54371V11.6651C3.50122 11.8198 3.56268 11.9682 3.67208 12.0776C3.78147 12.187 3.92985 12.2485 4.08456 12.2485H9.91789Z" stroke="#CC1015" stroke-width="1.16667" stroke-linecap="round" stroke-linejoin="round"/>
<path d="M3.5 9.91797H10.5" stroke="#CC1015" stroke-width="1.16667" stroke-linecap="round" stroke-linejoin="round"/>
</svg>
