<svg width="18" height="18" viewBox="0 0 18 18" fill="none" xmlns="http://www.w3.org/2000/svg">
<path d="M8.4314 2.38015C8.46288 2.32298 8.50911 2.27532 8.56529 2.24212C8.62147 2.20892 8.68552 2.19141 8.75078 2.19141C8.81603 2.19141 8.88009 2.20892 8.93627 2.24212C8.99244 2.27532 9.03868 2.32298 9.07015 2.38015L11.2227 6.4664C11.274 6.56102 11.3456 6.6431 11.4324 6.70674C11.5193 6.77039 11.6191 6.81403 11.7248 6.83452C11.8304 6.85502 11.9393 6.85186 12.0436 6.82528C12.148 6.79869 12.2451 6.74934 12.3281 6.68077L15.4467 4.00911C15.5066 3.96041 15.5804 3.93197 15.6574 3.92788C15.7345 3.92378 15.8108 3.94424 15.8755 3.98632C15.9402 4.02839 15.9899 4.0899 16.0174 4.162C16.0449 4.23411 16.0488 4.31307 16.0286 4.38754L13.9621 11.8586C13.9199 12.0115 13.8291 12.1464 13.7033 12.243C13.5775 12.3396 13.4236 12.3925 13.265 12.3938H4.23724C4.07852 12.3927 3.9245 12.3398 3.79856 12.2432C3.67262 12.1466 3.58164 12.0116 3.53942 11.8586L1.47369 4.38827C1.45346 4.3138 1.45738 4.23483 1.48488 4.16273C1.51238 4.09063 1.56206 4.02912 1.62675 3.98705C1.69144 3.94497 1.76781 3.92451 1.84487 3.92861C1.92193 3.9327 1.9957 3.96114 2.05557 4.00983L5.17349 6.6815C5.25646 6.75007 5.3536 6.79942 5.45791 6.82601C5.56222 6.85259 5.67112 6.85575 5.7768 6.83525C5.88247 6.81476 5.9823 6.77112 6.06912 6.70747C6.15593 6.64382 6.22757 6.56175 6.2789 6.46713L8.4314 2.38015Z" stroke="#CC1015" stroke-width="1.45833" stroke-linecap="round" stroke-linejoin="round"/>
<path d="M3.64844 15.3125H13.8568" stroke="#CC1015" stroke-width="1.45833" stroke-linecap="round" stroke-linejoin="round"/>
</svg>
