<svg width="11" height="11" viewBox="0 0 11 11" fill="none" xmlns="http://www.w3.org/2000/svg">
<path d="M5.05728 1.42965C5.07616 1.39535 5.1039 1.36675 5.13761 1.34683C5.17132 1.32691 5.20975 1.31641 5.2489 1.31641C5.28806 1.31641 5.32649 1.32691 5.3602 1.34683C5.3939 1.36675 5.42165 1.39535 5.44053 1.42965L6.73203 3.8814C6.76283 3.93817 6.80581 3.98742 6.8579 4.02561C6.90999 4.0638 6.96989 4.08998 7.03329 4.10228C7.0967 4.11457 7.16204 4.11268 7.22463 4.09673C7.28721 4.08078 7.34549 4.05117 7.39528 4.01003L9.26647 2.40703C9.30239 2.37781 9.34665 2.36075 9.39289 2.35829C9.43912 2.35583 9.48495 2.36811 9.52376 2.39335C9.56257 2.4186 9.59238 2.4555 9.60888 2.49877C9.62538 2.54203 9.62773 2.58941 9.61559 2.63409L8.37572 7.11671C8.35041 7.20844 8.29588 7.28942 8.22041 7.34737C8.14493 7.40532 8.05262 7.43708 7.95747 7.43784H2.54078C2.44555 7.43717 2.35314 7.40546 2.27758 7.3475C2.20201 7.28954 2.14742 7.20851 2.12209 7.11671L0.882654 2.63453C0.870513 2.58984 0.872863 2.54246 0.889366 2.4992C0.905868 2.45594 0.935671 2.41903 0.974485 2.39379C1.0133 2.36855 1.05912 2.35627 1.10536 2.35873C1.15159 2.36118 1.19586 2.37825 1.23178 2.40746L3.10253 4.01046C3.15232 4.05161 3.21059 4.08122 3.27318 4.09717C3.33577 4.11312 3.40111 4.11501 3.46452 4.10271C3.52792 4.09042 3.58782 4.06423 3.63991 4.02605C3.69199 3.98786 3.73498 3.93861 3.76578 3.88184L5.05728 1.42965Z" stroke="white" stroke-width="0.875" stroke-linecap="round" stroke-linejoin="round"/>
<path d="M2.1875 9.1875H8.3125" stroke="white" stroke-width="0.875" stroke-linecap="round" stroke-linejoin="round"/>
</svg>
