<svg width="16" height="16" viewBox="0 0 16 16" fill="none" xmlns="http://www.w3.org/2000/svg">
<g clip-path="url(#clip0_5023_1078)">
<path d="M14.665 11.2827V13.2827C14.6657 13.4683 14.6277 13.6521 14.5533 13.8222C14.479 13.9924 14.3699 14.1451 14.233 14.2706C14.0962 14.3961 13.9347 14.4917 13.7588 14.5511C13.5829 14.6106 13.3966 14.6327 13.2117 14.616C11.1602 14.3931 9.18966 13.6921 7.45833 12.5693C5.84755 11.5458 4.48189 10.1801 3.45833 8.56934C2.33165 6.83014 1.63049 4.85 1.41166 2.78934C1.395 2.60498 1.41691 2.41918 1.47599 2.24375C1.53508 2.06833 1.63004 1.90713 1.75484 1.77042C1.87964 1.6337 2.03153 1.52448 2.20086 1.44968C2.37018 1.37489 2.55322 1.33618 2.73833 1.336H4.73833C5.06187 1.33282 5.37552 1.44739 5.62084 1.65836C5.86615 1.86933 6.02638 2.1623 6.07166 2.48267C6.15608 3.12271 6.31263 3.75115 6.53833 4.356C6.62802 4.59462 6.64744 4.85395 6.59427 5.10326C6.5411 5.35257 6.41757 5.58141 6.23833 5.76267L5.39166 6.60934C6.3407 8.27837 7.72263 9.6603 9.39166 10.6093L10.2383 9.76267C10.4196 9.58343 10.6484 9.4599 10.8977 9.40673C11.1471 9.35356 11.4064 9.37297 11.645 9.46267C12.2498 9.68837 12.8783 9.84492 13.5183 9.92934C13.8422 9.97502 14.1379 10.1381 14.3494 10.3877C14.5608 10.6372 14.6731 10.9557 14.665 11.2827Z" stroke="#CC1015" stroke-width="1.33333" stroke-linecap="round" stroke-linejoin="round"/>
<path d="M9.36719 1.33594C10.726 1.47912 11.9953 2.0818 12.9651 3.04432C13.9349 4.00685 14.5471 5.27155 14.7005 6.62927" stroke="#CC1015" stroke-width="1.33333" stroke-linecap="round" stroke-linejoin="round"/>
<path d="M9.36719 4C10.0229 4.12929 10.6245 4.45268 11.0941 4.92821C11.5637 5.40373 11.8795 6.00942 12.0005 6.66667" stroke="#CC1015" stroke-width="1.33333" stroke-linecap="round" stroke-linejoin="round"/>
</g>
<defs>
<clipPath id="clip0_5023_1078">
<rect width="16" height="16" fill="white"/>
</clipPath>
</defs>
</svg>
