<svg width="13" height="13" viewBox="0 0 13 13" fill="none" xmlns="http://www.w3.org/2000/svg">
<path d="M6.14324 0.754053C6.1688 0.702405 6.20829 0.65893 6.25725 0.628534C6.30621 0.598138 6.36269 0.582031 6.42032 0.582031C6.47795 0.582031 6.53443 0.598138 6.58339 0.628534C6.63235 0.65893 6.67184 0.702405 6.6974 0.754053L8.0449 3.48347C8.13367 3.66312 8.26471 3.81854 8.42677 3.9364C8.58883 4.05426 8.77706 4.13104 8.97532 4.16014L11.9888 4.60114C12.0459 4.60941 12.0996 4.63349 12.1437 4.67067C12.1878 4.70784 12.2207 4.75662 12.2385 4.81149C12.2563 4.86636 12.2585 4.92512 12.2447 4.98114C12.2308 5.03716 12.2016 5.08819 12.1603 5.12847L9.98099 7.25064C9.83726 7.3907 9.72973 7.56358 9.66764 7.75442C9.60555 7.94525 9.59077 8.14832 9.62457 8.34614L10.1391 11.3445C10.1491 11.4015 10.143 11.4603 10.1213 11.514C10.0996 11.5678 10.0632 11.6143 10.0163 11.6484C9.96941 11.6824 9.91389 11.7026 9.85608 11.7067C9.79826 11.7107 9.74048 11.6984 9.68932 11.6711L6.99549 10.2548C6.81799 10.1616 6.62051 10.1129 6.42003 10.1129C6.21955 10.1129 6.02207 10.1616 5.84457 10.2548L3.15132 11.6711C3.10018 11.6982 3.04247 11.7104 2.98475 11.7063C2.92703 11.7022 2.87162 11.682 2.82483 11.6479C2.77803 11.6139 2.74172 11.5674 2.72004 11.5138C2.69835 11.4601 2.69215 11.4015 2.70215 11.3445L3.21607 8.34672C3.25002 8.14881 3.23531 7.94562 3.17322 7.75466C3.11112 7.56371 3.00351 7.39073 2.85965 7.25064L0.680321 5.12905C0.638667 5.08882 0.60915 5.0377 0.595132 4.98151C0.581114 4.92532 0.583159 4.86633 0.601033 4.81125C0.618908 4.75616 0.651893 4.70721 0.696232 4.66996C0.740571 4.63271 0.794481 4.60866 0.851821 4.60055L3.86474 4.16014C4.06322 4.13126 4.25171 4.05459 4.41399 3.93671C4.57628 3.81884 4.70748 3.66329 4.79632 3.48347L6.14324 0.754053Z" fill="#F0B100" stroke="#F0B100" stroke-width="1.16667" stroke-linecap="round" stroke-linejoin="round"/>
</svg>
