<svg width="18" height="18" viewBox="0 0 18 18" fill="none" xmlns="http://www.w3.org/2000/svg">
<g clip-path="url(#clip0_14448_6408)">
<path d="M8.39975 1.67206C8.4317 1.6075 8.48107 1.55315 8.54227 1.51516C8.60347 1.47716 8.67407 1.45703 8.7461 1.45703C8.81814 1.45703 8.88874 1.47716 8.94994 1.51516C9.01114 1.55315 9.0605 1.6075 9.09246 1.67206L10.7768 5.08383C10.8878 5.30839 11.0516 5.50267 11.2542 5.64999C11.4567 5.79732 11.692 5.89329 11.9399 5.92966L15.7067 6.48091C15.7781 6.49125 15.8452 6.52136 15.9003 6.56783C15.9555 6.6143 15.9965 6.67527 16.0188 6.74385C16.0411 6.81244 16.0438 6.8859 16.0265 6.95592C16.0093 7.02594 15.9727 7.08973 15.9211 7.14008L13.1969 9.79279C13.0173 9.96786 12.8829 10.184 12.8053 10.4225C12.7276 10.6611 12.7092 10.9149 12.7514 11.1622L13.3945 14.9101C13.4071 14.9814 13.3994 15.0549 13.3723 15.122C13.3452 15.1892 13.2997 15.2474 13.2411 15.29C13.1825 15.3325 13.1131 15.3578 13.0408 15.3628C12.9685 15.3678 12.8963 15.3525 12.8324 15.3184L9.46506 13.548C9.24319 13.4315 8.99634 13.3706 8.74574 13.3706C8.49514 13.3706 8.24829 13.4315 8.02642 13.548L4.65985 15.3184C4.59593 15.3523 4.52379 15.3675 4.45164 15.3623C4.37949 15.3572 4.31023 15.3319 4.25174 15.2894C4.19324 15.2469 4.14786 15.1888 4.12075 15.1217C4.09364 15.0546 4.0859 14.9813 4.0984 14.9101L4.74079 11.1629C4.78323 10.9155 4.76484 10.6615 4.68723 10.4228C4.60961 10.1841 4.47509 9.9679 4.29527 9.79279L1.5711 7.14081C1.51904 7.09052 1.48214 7.02662 1.46462 6.95638C1.4471 6.88615 1.44965 6.8124 1.47199 6.74355C1.49434 6.6747 1.53557 6.6135 1.59099 6.56694C1.64642 6.52038 1.7138 6.49032 1.78548 6.48018L5.55162 5.92966C5.79973 5.89357 6.03535 5.79772 6.2382 5.65038C6.44105 5.50304 6.60505 5.30861 6.7161 5.08383L8.39975 1.67206Z" stroke="#CC1015" stroke-width="1.45833" stroke-linecap="round" stroke-linejoin="round"/>
</g>
<defs>
<clipPath id="clip0_14448_6408">
<rect width="17.5" height="17.5" fill="white"/>
</clipPath>
</defs>
</svg>
