<svg width="10" height="10" viewBox="0 0 10 10" fill="none" xmlns="http://www.w3.org/2000/svg">
<path d="M4.60547 0.566516C4.62465 0.52778 4.65427 0.495174 4.69099 0.472377C4.72771 0.44958 4.77007 0.4375 4.81329 0.4375C4.85651 0.4375 4.89887 0.44958 4.93559 0.472377C4.97231 0.495174 5.00193 0.52778 5.0211 0.566516L6.03172 2.61358C6.0983 2.74831 6.19658 2.86488 6.31812 2.95328C6.43967 3.04167 6.58084 3.09925 6.72954 3.12108L8.98966 3.45183C9.03249 3.45803 9.07272 3.4761 9.10581 3.50398C9.13891 3.53186 9.16354 3.56844 9.17692 3.60959C9.1903 3.65074 9.19191 3.69482 9.18154 3.73683C9.17118 3.77884 9.14927 3.81712 9.11829 3.84733L7.48379 5.43895C7.37599 5.544 7.29534 5.67366 7.24878 5.81679C7.20221 5.95992 7.19113 6.11222 7.21647 6.26058L7.60235 8.50933C7.60991 8.55213 7.60529 8.5962 7.58901 8.6365C7.57273 8.67681 7.54544 8.71172 7.51028 8.73726C7.47511 8.76281 7.43347 8.77795 7.3901 8.78097C7.34674 8.78399 7.3034 8.77476 7.26504 8.75433L5.24466 7.69208C5.11154 7.62218 4.96343 7.58566 4.81307 7.58566C4.66271 7.58566 4.5146 7.62218 4.38147 7.69208L2.36154 8.75433C2.32318 8.77463 2.2799 8.78377 2.23661 8.78069C2.19332 8.77761 2.15176 8.76245 2.11667 8.73692C2.08157 8.7114 2.05434 8.67654 2.03807 8.6363C2.02181 8.59607 2.01716 8.55207 2.02466 8.50933L2.4101 6.26102C2.43556 6.11259 2.42453 5.96019 2.37796 5.81697C2.33139 5.67376 2.25068 5.54402 2.14279 5.43895L0.508287 3.84777C0.477047 3.81759 0.454909 3.77925 0.444396 3.73711C0.433882 3.69497 0.435416 3.65072 0.448822 3.60941C0.462228 3.5681 0.486967 3.53138 0.520221 3.50345C0.553475 3.47551 0.593908 3.45747 0.636912 3.45139L2.8966 3.12108C3.04546 3.09942 3.18683 3.04192 3.30854 2.95351C3.43025 2.8651 3.52866 2.74845 3.59529 2.61358L4.60547 0.566516Z" stroke="white" stroke-width="0.875" stroke-linecap="round" stroke-linejoin="round"/>
</svg>
